<?xml version="1.0" encoding="utf-8"?>
<!-- Generator: Adobe Illustrator 24.2.3, SVG Export Plug-In . SVG Version: 6.00 Build 0)  -->
<svg version="1.1" id="Capa_1" xmlns="http://www.w3.org/2000/svg" xmlns:xlink="http://www.w3.org/1999/xlink" x="0px" y="0px"
	 viewBox="0 0 595.3 479.1" style="enable-background:new 0 0 595.3 479.1;" xml:space="preserve">
<style type="text/css">
	.st0{fill:#689ED5;}
	.st1{fill:#F6F6F6;}
	.st2{fill:#6EC6D9;}
	.st3{enable-background:new    ;}
	.st4{fill:#FFFFFF;}
	.st5{display:none;}
	.st6{display:inline;fill:#FFFFFF;stroke:#000000;stroke-miterlimit:10;}
</style>
<g id="Capa_1_1_">
</g>
<g id="Capa_4">
	<polygon class="st0" points="206.6,399.9 113.3,238.2 206.6,76.5 393.4,76.5 486.8,238.2 393.4,399.9 	"/>
	<polygon class="st1" points="299.1,393.4 164.3,315.8 164.5,160.2 299.6,82.3 434.4,159.9 434.2,315.4 	"/>
	<polygon class="st2" points="299.6,386.9 170.3,312.2 170.3,163 299.6,88.4 428.8,163 428.8,312.2 	"/>
	<g class="st3">
		<path class="st4" d="M238.4,291.4v-47.9l-34.2-65.9h22l21.9,45l21.6-45h21.7l-34.3,66.1v47.8H238.4z"/>
		<path class="st4" d="M300.6,291.4V177.6h28.2l17,77.7l16.8-77.7h28.3v113.8h-17.5v-89.7l-18.6,89.7h-18.1l-18.5-89.7v89.7H300.6z"
			/>
	</g>
</g>
<g id="Capa_5">
</g>
<g id="Capa_2_1_" class="st5">
	<rect x="56.1" y="27.4" class="st6" width="227.1" height="256.3"/>
</g>
<g id="Capa_3" class="st5">
	<circle class="st6" cx="112.7" cy="198.3" r="28.3"/>
	<circle class="st6" cx="141" cy="141.4" r="28.3"/>
	<circle class="st6" cx="112.4" cy="197.7" r="11.7"/>
	<circle class="st6" cx="141" cy="141.4" r="11.7"/>
</g>
</svg>
